<svg width="32" height="32" viewBox="0 0 32 32" fill="none" xmlns="http://www.w3.org/2000/svg">
<g id="Group 95">
<path id="Vector" fill-rule="evenodd" clip-rule="evenodd" d="M16.0014 31.5556V25.5264C22.3832 25.5264 27.3371 19.1976 24.8863 12.4807C24.4363 11.2467 23.7218 10.1261 22.7931 9.19724C21.8644 8.26841 20.7438 7.55386 19.5099 7.10364C12.793 4.67099 6.46426 9.60681 6.46426 15.9886H0.452545C0.452545 5.81742 10.2898 -2.11584 20.9553 1.21548C25.6096 2.67956 29.3291 6.38096 30.7751 11.0359C34.107 21.7183 26.1913 31.5556 16.0014 31.5556Z" fill="#0080FF"/>
<path id="Vector_2" fill-rule="evenodd" clip-rule="evenodd" d="M10.0252 25.5439H16.0189V19.5502H10.0259L10.0252 25.5439ZM5.40645 30.1627H10.0246V25.5445H5.40645V30.1627ZM1.54529 25.5445H5.40645V21.6827H1.54529V25.5445Z" fill="#0080FF"/>
</g>
</svg>
