<svg width="32" height="32" viewBox="0 0 32 32" fill="none" xmlns="http://www.w3.org/2000/svg">
<g id="Group 41">
<path id="Vector" d="M15.9597 0.447177C15.9597 0.447177 25.0967 0.0359042 29.9393 9.2186H15.1827C15.1827 9.2186 12.3958 9.12693 10.0201 12.5081C9.33493 13.9245 8.60413 15.3865 9.42632 18.2642C8.23858 16.2545 3.12167 7.34565 3.12167 7.34565C3.12167 7.34565 6.73125 0.812507 15.9597 0.447177Z" fill="#C6352E"/>
<path id="Vector_2" d="M29.4636 23.7618C29.4636 23.7618 25.2501 31.8794 14.8761 31.4804C16.1559 29.2652 22.2561 18.7019 22.2561 18.7019C22.2561 18.7019 23.7289 16.3344 21.9899 12.5864C21.1058 11.2846 20.2055 9.92048 17.3019 9.19316C19.6371 9.16997 29.91 9.19465 29.91 9.19465C29.91 9.19465 33.7623 15.5875 29.4636 23.7618Z" fill="#F4D911"/>
<path id="Vector_3" d="M2.52071 23.8235C2.52071 23.8235 -2.40234 16.1147 3.1309 7.33069C4.40952 9.54672 10.5065 20.112 10.5065 20.112C10.5065 20.112 11.82 22.5711 15.9357 22.9393C17.5046 22.8249 19.1365 22.7273 21.2182 20.5766C20.0705 22.6101 14.912 31.4947 14.912 31.4947C14.912 31.4947 7.44973 31.6338 2.52071 23.8235Z" fill="#81B354"/>
<path id="Vector_4" d="M14.8761 31.5555L16.9518 22.8939C16.9518 22.8939 19.2341 22.7158 21.1465 20.6169C19.9593 22.7053 14.8761 31.5555 14.8761 31.5555Z" fill="#7BAA50"/>
<path id="Vector_5" d="M9.00784 16.0969C9.00784 12.2786 12.1029 9.18317 15.9215 9.18317C19.7399 9.18317 22.8352 12.2785 22.8352 16.0969C22.8352 19.9154 19.74 23.0109 15.9215 23.0109C12.1029 23.0109 9.00784 19.9155 9.00784 16.0969Z" fill="white"/>
<path id="Vector_6" d="M10.1649 16.0969C10.1649 12.9178 12.7421 10.3406 15.9215 10.3406C19.1004 10.3406 21.6778 12.9178 21.6778 16.0969C21.6778 19.2761 19.1004 21.8535 15.9215 21.8535C12.7421 21.8536 10.1649 19.2759 10.1649 16.0969Z" fill="url(#paint0_linear_230_12343)"/>
<path id="Vector_7" d="M29.91 9.19466L21.3629 11.7006C21.3629 11.7006 20.074 9.80918 17.3018 9.19316C19.7039 9.18499 29.91 9.19466 29.91 9.19466Z" fill="#E7CE12"/>
<path id="Vector_8" d="M9.26013 17.9534C8.05895 15.8732 3.12195 7.34546 3.12195 7.34546L9.4535 13.6088C9.4535 13.6088 8.80284 14.9472 9.04955 16.8589L9.26013 17.9534Z" fill="#BC332C"/>
</g>
<defs>
<linearGradient id="paint0_linear_230_12343" x1="15.9213" y1="10.422" x2="15.9213" y2="21.5091" gradientUnits="userSpaceOnUse">
<stop stop-color="#A2C0E6"/>
<stop offset="1" stop-color="#406CB1"/>
</linearGradient>
</defs>
</svg>
