<svg width="15" height="32" viewBox="0 0 15 32" fill="none" xmlns="http://www.w3.org/2000/svg">
<g id="Group 61">
<path id="Vector" d="M6.93557 0.529419L7.77043 2.08875C7.95812 2.3765 8.16146 2.63121 8.40097 2.86841C9.10315 3.55798 9.75767 4.29396 10.36 5.0713C11.7746 6.91839 12.7287 8.96962 13.4101 11.1881C13.8187 12.5432 14.0407 13.9334 14.0573 15.3391C14.1257 19.5418 12.6769 23.1504 9.7559 26.1495C9.28077 26.625 8.76747 27.0614 8.22109 27.4541C7.93173 27.4541 7.79487 27.2334 7.6756 27.0302C7.45841 26.6535 7.31386 26.2397 7.24938 25.8102C7.14673 25.3017 7.07927 24.7933 7.11251 24.2683V24.0311C7.08905 23.9806 6.8339 0.648993 6.93557 0.529419Z" fill="#599636"/>
<path id="Vector_2" d="M6.93559 0.477903C6.90137 0.409852 6.86716 0.461376 6.83294 0.494429C6.84956 0.834682 6.7303 1.13799 6.54358 1.42769C6.33829 1.71545 6.06652 1.93613 5.79377 2.17333C4.27852 3.47796 3.08587 5.05381 2.13077 6.81632C0.859912 9.18837 0.204932 11.7305 0.0191912 14.4069C-0.0658584 15.3722 0.326152 18.7786 0.632136 19.7615C1.46699 22.3707 2.9666 24.5571 4.90906 26.4547C5.38612 26.9116 5.89642 27.3355 6.42431 27.7428C6.57779 27.7428 6.59441 27.6067 6.62961 27.5056C6.6969 27.2893 6.74819 27.0683 6.78309 26.8446L7.12524 24.3034L6.93559 0.477903Z" fill="#6CAC48"/>
<path id="Vector_3" d="M7.77045 28.4865C7.80466 28.0977 7.99236 27.7749 8.19668 27.4531C7.99138 27.3686 7.83888 27.2004 7.71961 27.0128C7.61677 26.8351 7.53165 26.6479 7.46544 26.4538C7.22691 25.7422 7.17608 24.9956 7.10765 24.2684V23.828C7.0226 23.8961 7.005 24.4716 7.005 24.5571C6.95526 25.3257 6.8527 26.0899 6.69804 26.8446C6.64721 27.1498 6.61299 27.4541 6.42432 27.7253C6.42432 27.7594 6.42432 27.7934 6.44094 27.8439C6.7479 28.7422 6.83197 29.657 6.88378 30.5893V30.9295C6.88378 31.3359 6.86716 31.2503 7.20638 31.3864C7.34325 31.437 7.49575 31.4545 7.63261 31.5556C7.73526 31.5556 7.75188 31.471 7.75188 31.403L7.70104 30.844V29.2847C7.68442 29.0125 7.73526 28.7422 7.76947 28.4875L7.77045 28.4865Z" fill="#C2BFBF"/>
</g>
</svg>
