<svg width="39" height="22" viewBox="0 0 39 22" fill="none" xmlns="http://www.w3.org/2000/svg">
<g id="Group">
<path id="Vector" d="M12.2136 14.4271C14.1163 14.4271 15.6587 12.8847 15.6587 10.982C15.6587 9.07939 14.1163 7.53699 12.2136 7.53699C10.311 7.53699 8.76859 9.07939 8.76859 10.982C8.76859 12.8847 10.311 14.4271 12.2136 14.4271ZM4.07079 21.3172C5.97344 21.3172 7.51584 19.7748 7.51584 17.8722C7.51584 15.9695 5.97344 14.4271 4.07079 14.4271C2.16814 14.4271 0.625732 15.9695 0.625732 17.8722C0.625732 19.7748 2.16814 21.3172 4.07079 21.3172ZM35.1807 21.3172C37.0833 21.3172 38.6257 19.7748 38.6257 17.8722C38.6257 15.9695 37.0833 14.4271 35.1807 14.4271C33.278 14.4271 31.7356 15.9695 31.7356 17.8722C31.7356 19.7748 33.278 21.3172 35.1807 21.3172Z" fill="black"/>
<path id="Vector_2" d="M23.8659 11.1272C23.7558 9.9762 23.6997 9.01821 22.818 8.34492C21.7013 7.49223 20.4364 8.0455 18.8783 7.48311C17.3473 7.11274 16.2117 5.75341 16.2117 4.1332C16.2117 2.22803 17.7818 0.683594 19.7187 0.683594C21.1532 0.683594 22.3866 1.5308 22.9299 2.74428C23.7614 4.3236 23.221 5.93087 24.2656 6.74046C25.5026 7.69907 27.1702 6.99707 29.031 7.90534C29.629 8.18009 30.135 8.61586 30.4917 9.15595C30.8483 9.69603 31.0554 10.3404 31.0554 11.0324C31.0554 12.6526 29.9198 14.0119 28.3888 14.3823C26.8307 14.9447 25.5658 14.3914 24.4491 15.2441C23.1934 16.203 23.8657 17.8071 22.8423 19.5017C22.2614 20.6175 21.0807 21.3812 19.7187 21.3812C17.7818 21.3812 16.2117 19.8368 16.2117 17.9316C16.2117 16.5477 17.0402 15.354 18.236 14.8045C20.0968 13.8963 21.7645 14.5983 23.0015 13.6397C23.7151 13.0866 23.8659 12.2336 23.8659 11.1272Z" fill="#D0021B"/>
</g>
</svg>
