<svg width="29" height="32" viewBox="0 0 29 32" fill="none" xmlns="http://www.w3.org/2000/svg">
<g id="Group 76">
<path id="Vector" d="M13.0391 0.77637C13.8105 0.334819 14.8153 0.332824 15.586 0.77637C19.4636 2.96739 23.3424 5.15498 27.2193 7.34734C27.9485 7.75809 28.4362 8.56961 28.4288 9.40983V22.5919C28.4342 23.4669 27.8983 24.2978 27.129 24.6992C23.2641 26.8782 19.4013 29.0598 15.5372 31.2387C14.7498 31.6889 13.7249 31.6543 12.9621 31.1672C11.8034 30.4955 10.6428 29.8271 9.48397 29.1561C9.24719 29.0149 8.98026 28.9026 8.81306 28.673C8.96087 28.4738 9.22514 28.4489 9.43988 28.362C9.92353 28.2082 10.3677 27.9613 10.8121 27.7217C10.9244 27.6448 11.0616 27.6743 11.1693 27.7431C12.1601 28.3112 13.1421 28.8958 14.1363 29.4585C14.3484 29.5809 14.5631 29.4184 14.7444 29.3173C18.5369 27.1738 22.3342 25.0384 26.1261 22.8943C26.2666 22.8267 26.3443 22.6775 26.3328 22.5236C26.3355 18.1751 26.3335 13.8259 26.3342 9.47742C26.3502 9.3028 26.2492 9.14224 26.0913 9.07077C22.2399 6.9018 18.3905 4.7295 14.5397 2.55997C14.473 2.5141 14.394 2.48949 14.313 2.48938C14.232 2.48926 14.1529 2.51363 14.0861 2.55931C10.2353 4.7295 6.38658 6.90379 2.53583 9.07266C2.37849 9.14424 2.27289 9.30213 2.29162 9.47742C2.29229 13.8259 2.29162 18.1751 2.29162 22.5243C2.28494 22.5994 2.30144 22.6747 2.33888 22.7402C2.37632 22.8056 2.43291 22.858 2.50104 22.8903C3.52863 23.473 4.55755 24.0516 5.5858 24.6323C6.16508 24.9441 6.87633 25.1294 7.51456 24.8905C8.07777 24.6885 8.47256 24.1138 8.46181 23.5158C8.46713 19.1927 8.45916 14.8689 8.4658 10.5465C8.45173 10.3545 8.63378 10.196 8.82037 10.214C9.31411 10.2107 9.80852 10.2074 10.3023 10.2154C10.5084 10.2107 10.6502 10.4174 10.6247 10.6107C10.6227 14.9612 10.63 19.3118 10.6214 23.6622C10.6227 24.8217 10.1464 26.0833 9.07389 26.6506C7.75267 27.335 6.11965 27.1899 4.81439 26.5336C3.68442 25.9696 2.60608 25.304 1.49616 24.6998C0.724862 24.3006 0.191565 23.4663 0.196995 22.592V9.40983C0.188906 8.55221 0.696053 7.72595 1.44796 7.32119C5.31212 5.14047 9.17561 2.95809 13.0391 0.77637Z" fill="#8CC84B"/>
<path id="Vector_2" d="M16.4102 9.90759C18.0955 9.79911 19.8997 9.84333 21.4163 10.6736C22.5905 11.3098 23.2414 12.6451 23.2622 13.9496C23.2294 14.1255 23.0454 14.2226 22.8774 14.2105C22.3885 14.2099 21.8994 14.2172 21.4104 14.2072C21.203 14.2152 21.0824 14.0239 21.0564 13.8406C20.9159 13.2164 20.5755 12.5982 19.988 12.2972C19.0862 11.8457 18.0406 11.8684 17.0572 11.8778C16.3393 11.9159 15.5673 11.9781 14.9591 12.4002C14.4922 12.72 14.3504 13.3655 14.517 13.8854C14.6741 14.2587 15.105 14.3792 15.4576 14.4902C17.4886 15.0214 19.6409 14.9685 21.6331 15.6676C22.4579 15.9526 23.2648 16.5066 23.5471 17.3702C23.9165 18.5276 23.7546 19.9111 22.9311 20.8403C22.2633 21.605 21.2906 22.0212 20.3206 22.2472C19.03 22.535 17.6907 22.5423 16.3802 22.4145C15.1478 22.274 13.8654 21.9502 12.914 21.1106C12.1005 20.4042 11.7032 19.3036 11.7426 18.2413C11.752 18.0619 11.9306 17.9368 12.1025 17.9516C12.5949 17.9476 13.0873 17.9463 13.5797 17.9522C13.7764 17.9382 13.9222 18.1081 13.9323 18.2935C14.0232 18.8882 14.2466 19.5124 14.7652 19.8649C15.766 20.5106 17.0217 20.4664 18.1676 20.4844C19.117 20.4423 20.1827 20.4296 20.9574 19.8021C21.3662 19.4442 21.4873 18.8454 21.3768 18.3303C21.2572 17.8954 20.8022 17.6927 20.4115 17.5602C18.4065 16.926 16.2302 17.1561 14.2447 16.4389C13.4386 16.154 12.6591 15.6154 12.3494 14.7873C11.9172 13.6152 12.1152 12.1654 13.025 11.2676C13.9121 10.3745 15.1927 10.0306 16.4102 9.90748V9.90759Z" fill="#8CC84B"/>
</g>
</svg>
