<svg width="32" height="32" viewBox="0 0 32 32" fill="none" xmlns="http://www.w3.org/2000/svg">
<g id="Group 67">
<path id="Vector" d="M0.513977 0.703735H31.7989V31.2963H0.513977V0.703735Z" fill="url(#paint0_linear_230_14973)"/>
<path id="Vector_2" d="M3.00208 3.1366H29.311V28.8636H3.00208V3.1366Z" fill="url(#paint1_linear_230_14973)"/>
<g id="Group">
<path id="Vector_3" d="M8.07429 9.3261C8.07429 9.3261 10.0523 9.27435 11.6806 9.27435C13.326 9.27435 14.4992 9.6593 15.2868 10.3358C16.0396 10.975 16.5473 12.0647 16.5473 13.3052C16.5473 14.5457 16.1621 15.5608 15.4617 16.2745C14.5514 17.1955 13.4907 17.7406 11.6806 17.816C11.1806 17.8369 10.7178 17.8418 10.7178 17.8418V21.8743H8.07419L8.07429 9.3261ZM10.7177 15.6077C11.0049 15.6355 11.1848 15.6222 11.6105 15.6171C13.0286 15.6002 13.9036 14.7427 13.9036 13.4458C13.9036 12.2808 13.1821 11.3243 11.8208 11.2747C11.2782 11.255 10.7177 11.2747 10.7177 11.2747V15.6077Z" fill="url(#paint2_linear_230_14973)"/>
<path id="Vector_4" d="M17.5561 19.065C18.0889 19.3901 19.3461 19.877 20.2031 19.877C21.0787 19.877 21.4402 19.5702 21.4402 19.0918C21.4402 18.6128 21.1547 18.1096 20.0694 17.7458C18.1466 17.0947 17.404 16.3152 17.4232 15.2243C17.4232 13.4622 18.908 12.1411 21.2116 12.1411C22.2968 12.1411 23.1637 12.4939 23.7344 12.7809V14.8956C23.3151 14.6656 22.1064 14.1521 21.307 14.1521C20.6021 14.1521 20.2026 14.4393 20.2026 14.9176C20.2026 15.3581 20.5646 15.588 21.7068 15.9903C23.477 16.603 24.2196 17.5027 24.2384 18.8815C24.2384 20.6242 22.8875 22.01 20.2026 21.9259C19.2812 21.8971 18.2603 21.5348 17.5559 21.1524L17.5561 19.065Z" fill="url(#paint3_linear_230_14973)"/>
</g>
</g>
<defs>
<linearGradient id="paint0_linear_230_14973" x1="8.11673" y1="-0.893923" x2="20.0005" y2="24.3574" gradientUnits="userSpaceOnUse">
<stop stop-color="#A0CBFF"/>
<stop offset="0.394" stop-color="#A0CBFE"/>
<stop offset="0.583" stop-color="#8EC2FC"/>
<stop offset="0.784" stop-color="#83BCFB"/>
<stop offset="1" stop-color="#7FBAFB"/>
</linearGradient>
<linearGradient id="paint1_linear_230_14973" x1="12.3736" y1="3.49915" x2="19.083" y2="25.92" gradientUnits="userSpaceOnUse">
<stop stop-color="#090058"/>
<stop offset="1" stop-color="#070033"/>
</linearGradient>
<linearGradient id="paint2_linear_230_14973" x1="4.38674" y1="0.446989" x2="16.2704" y2="25.698" gradientUnits="userSpaceOnUse">
<stop stop-color="#A0CBFF"/>
<stop offset="0.394" stop-color="#A0CBFE"/>
<stop offset="0.583" stop-color="#8EC2FC"/>
<stop offset="0.784" stop-color="#83BCFB"/>
<stop offset="1" stop-color="#7FBAFB"/>
</linearGradient>
<linearGradient id="paint3_linear_230_14973" x1="11.2177" y1="-2.84341" x2="23.1485" y2="22.5077" gradientUnits="userSpaceOnUse">
<stop stop-color="#A0CBFF"/>
<stop offset="0.394" stop-color="#A0CBFE"/>
<stop offset="0.583" stop-color="#8EC2FC"/>
<stop offset="0.784" stop-color="#83BCFB"/>
<stop offset="1" stop-color="#7FBAFB"/>
</linearGradient>
</defs>
</svg>
