<svg width="32" height="32" viewBox="0 0 32 32" fill="none" xmlns="http://www.w3.org/2000/svg">
<g id="Group 68">
<path id="Vector" d="M31.7989 0.444458H0.513977V31.5556H31.7989V0.444458Z" fill="#F7DF1E"/>
<path id="Vector_2" d="M21.5295 24.7502C22.1597 25.7734 22.9795 26.5255 24.4296 26.5255C25.6477 26.5255 26.4258 25.92 26.4258 25.0835C26.4258 24.081 25.6263 23.726 24.2855 23.1427L23.5506 22.8292C21.4292 21.9304 20.0199 20.8045 20.0199 18.4242C20.0199 16.2316 21.6998 14.5625 24.3253 14.5625C26.1944 14.5625 27.5382 15.2094 28.5065 16.9032L26.2173 18.365C25.7132 17.4662 25.1695 17.1121 24.3253 17.1121C23.4642 17.1121 22.9184 17.6553 22.9184 18.365C22.9184 19.242 23.4647 19.5971 24.726 20.1403L25.461 20.4534C27.9588 21.5185 29.3691 22.6045 29.3691 25.046C29.3691 27.6781 27.2899 29.12 24.4976 29.12C21.7674 29.12 20.0035 27.8262 19.1404 26.1304L21.5295 24.7502ZM11.1444 25.0035C11.6062 25.8183 12.0263 26.5072 13.0364 26.5072C14.0022 26.5072 14.6116 26.1314 14.6116 24.6702V14.7294H17.5513V24.7097C17.5513 27.7368 15.7666 29.1146 13.1615 29.1146C10.8077 29.1146 9.44458 27.9032 8.75134 26.4442L11.1444 25.0035Z" fill="black"/>
</g>
</svg>
