<svg width="32" height="32" viewBox="0 0 32 32" fill="none" xmlns="http://www.w3.org/2000/svg">
<g id="Group 57">
<path id="Vector" d="M15.7822 0.82843C7.14422 0.82843 0.139709 7.7928 0.139709 16.384C0.139709 23.257 4.62176 29.0879 10.8371 31.1448C11.6188 31.2888 11.9059 30.8074 11.9059 30.3965C11.9059 30.0256 11.8913 28.8001 11.8846 27.5003C7.53275 28.4413 6.61448 25.665 6.61448 25.665C5.90292 23.8669 4.87767 23.3889 4.87767 23.3889C3.45849 22.4234 4.98465 22.4432 4.98465 22.4432C6.55547 22.553 7.38259 24.0463 7.38259 24.0463C8.77772 26.4244 11.0419 25.7368 11.9346 25.3395C12.0749 24.3339 12.4804 23.6478 12.9277 23.2594C9.45333 22.8659 5.80085 21.5321 5.80085 15.5716C5.80085 13.8734 6.41193 12.4857 7.41264 11.3963C7.25021 11.0045 6.71483 9.42236 7.56416 7.27967C7.56416 7.27967 8.87771 6.86158 11.867 8.87421C13.1146 8.52944 14.4529 8.35669 15.7822 8.35083C17.1116 8.35669 18.4508 8.52944 19.7009 8.87421C22.6866 6.86158 23.9983 7.27967 23.9983 7.27967C24.8497 9.42236 24.3141 11.0045 24.1517 11.3963C25.1546 12.4857 25.7615 13.8733 25.7615 15.5716C25.7615 21.5462 22.1022 22.8619 18.619 23.2469C19.18 23.7297 19.6799 24.6764 19.6799 26.1276C19.6799 28.2089 19.6618 29.8841 19.6618 30.3965C19.6618 30.8104 19.9433 31.2955 20.7364 31.1428C26.9482 29.0835 31.4246 23.2547 31.4246 16.384C31.4246 7.7928 24.4211 0.82843 15.7822 0.82843Z" fill="#161614"/>
<path id="Vector_2" d="M5.99831 22.9878C5.96396 23.065 5.84152 23.0882 5.73025 23.0352C5.61677 22.9845 5.55298 22.8791 5.58978 22.8015C5.62352 22.7219 5.74595 22.6997 5.85919 22.7532C5.97292 22.8038 6.03769 22.9102 5.99831 22.9878ZM6.76777 23.6705C6.69318 23.7393 6.54731 23.7073 6.44831 23.5986C6.34599 23.4902 6.32685 23.3452 6.40255 23.2753C6.47947 23.2066 6.62092 23.2387 6.72348 23.3473C6.8258 23.457 6.84567 23.6011 6.76765 23.6706L6.76777 23.6705ZM7.29567 24.544C7.19973 24.6103 7.04295 24.5482 6.94615 24.4098C6.85034 24.2716 6.85034 24.1057 6.94824 24.0392C7.0454 23.9727 7.19973 24.0325 7.29788 24.1697C7.39357 24.3104 7.39357 24.4763 7.29555 24.5441L7.29567 24.544ZM8.1883 25.5558C8.10255 25.6497 7.92 25.6246 7.78628 25.4962C7.64961 25.3708 7.61145 25.1928 7.69745 25.0987C7.78419 25.0046 7.96784 25.031 8.10255 25.1583C8.23836 25.2835 8.27983 25.4628 8.18843 25.5558H8.1883ZM9.342 25.8974C9.30434 26.0191 9.12841 26.0745 8.95126 26.0228C8.77435 25.9695 8.65854 25.8267 8.69424 25.7036C8.73105 25.581 8.90771 25.5233 9.08621 25.5787C9.26287 25.6318 9.37893 25.7734 9.34213 25.8974H9.342ZM10.6552 26.0422C10.6596 26.1705 10.5093 26.2769 10.3233 26.2792C10.1362 26.2832 9.98498 26.1794 9.98302 26.0533C9.98302 25.9237 10.1299 25.8183 10.3168 25.8153C10.5028 25.8116 10.6552 25.9147 10.6552 26.0422ZM11.9451 25.993C11.9674 26.1182 11.8381 26.2468 11.6535 26.2809C11.4719 26.3139 11.3038 26.2366 11.2806 26.1126C11.258 25.9842 11.3898 25.8558 11.571 25.8225C11.756 25.7905 11.9215 25.8658 11.9451 25.993Z" fill="#161614"/>
</g>
</svg>
