<svg width="32" height="32" viewBox="0 0 32 32" fill="none" xmlns="http://www.w3.org/2000/svg">
<g id="Group 27">
<path id="Vector" d="M28.101 6.4924C26.21 4.05724 23.6352 2.23444 20.7023 1.25456C17.7695 0.274669 14.6103 0.181704 11.6243 0.987418C8.63834 1.79313 5.95969 3.46133 3.92715 5.78104C1.89461 8.10075 0.599482 10.9678 0.205561 14.0195C-0.188361 17.0712 0.336619 20.1706 1.71411 22.9256C3.09159 25.6806 5.25971 27.9675 7.94425 29.497C10.6288 31.0266 13.7092 31.7301 16.7958 31.5186C19.8824 31.3071 22.8367 30.1901 25.2849 28.3089C32.1186 23.057 33.3798 13.2906 28.1005 6.4924H28.101Z" fill="#FF6C37"/>
<path id="Vector_2" d="M20.9964 10.356L14.4007 16.9671L12.5369 15.0615C19.0284 8.60602 19.68 9.18935 20.9969 10.356H20.9964Z" fill="white"/>
<path id="Vector_3" d="M14.4008 17.1479C14.3424 17.1465 14.2866 17.1234 14.2444 17.0832L12.3673 15.2166C12.325 15.1731 12.3014 15.115 12.3014 15.0545C12.3014 14.994 12.325 14.9359 12.3673 14.8924C18.7674 8.52776 19.641 8.82574 21.1529 10.1868C21.1782 10.207 21.1984 10.2327 21.212 10.262C21.2256 10.2913 21.2321 10.3233 21.2311 10.3555C21.2409 10.4187 21.2164 10.4834 21.1661 10.5242L14.5704 17.0837C14.5241 17.1259 14.4635 17.149 14.4008 17.1484V17.1479ZM12.8625 15.061L14.4008 16.5908L20.6577 10.3686C20.4417 10.0994 20.1334 9.91882 19.7919 9.86143C19.4504 9.80403 19.0995 9.87385 18.8065 10.0575C17.6725 10.5631 15.8477 12.1055 12.8625 15.061Z" fill="#FF6C37"/>
<path id="Vector_4" d="M16.291 18.7948L14.4921 16.967L21.0878 10.4853C22.8608 12.2095 20.2275 15.0872 16.291 18.7943V18.7948Z" fill="white"/>
<path id="Vector_5" d="M16.2911 19.0281C16.2334 19.0236 16.1786 19.0009 16.1347 18.9635L14.2967 17.1746C14.2691 17.1081 14.2691 17.0335 14.2967 16.967C14.2771 16.9125 14.2771 16.8529 14.2967 16.7983L20.8924 10.2393C20.9382 10.1965 20.9988 10.1726 21.0617 10.1726C21.1247 10.1726 21.1853 10.1965 21.2311 10.2393C21.4447 10.4348 21.6135 10.6738 21.7259 10.9399C21.8383 11.2061 21.8918 11.4932 21.8827 11.7817C21.8827 13.5317 19.8751 15.7352 16.4602 18.9503C16.4146 18.9952 16.3545 19.0228 16.2906 19.0281H16.2911ZM14.831 16.967L16.3038 18.4312C18.9107 15.9812 21.4007 13.4535 21.4135 11.7424C21.4276 11.3796 21.307 11.0244 21.0747 10.7444L14.831 16.967Z" fill="#FF6C37"/>
<path id="Vector_6" d="M12.5887 15.1004L13.8924 16.3969C13.9007 16.4042 13.9074 16.4131 13.912 16.4232C13.9165 16.4332 13.9189 16.4442 13.9189 16.4552C13.9189 16.4662 13.9165 16.4771 13.912 16.4872C13.9074 16.4972 13.9007 16.5062 13.8924 16.5135L11.1418 17.0968C11.0863 17.1088 11.0284 17.1023 10.9769 17.0785C10.9254 17.0546 10.8831 17.0147 10.8566 16.9648C10.83 16.9148 10.8206 16.8577 10.8297 16.8019C10.8388 16.7462 10.866 16.6949 10.9072 16.6559L12.5105 15.0746C12.5105 15.0746 12.5628 15.0746 12.5887 15.1004Z" fill="white"/>
<path id="Vector_7" d="M11.0768 17.3559C10.9899 17.3548 10.9047 17.3316 10.8294 17.2884C10.7541 17.2453 10.6911 17.1837 10.6466 17.1094C10.5965 17.0154 10.5783 16.9078 10.5948 16.8027C10.6113 16.6975 10.6615 16.6005 10.738 16.5261L12.3281 14.9317C12.3855 14.8807 12.4597 14.8525 12.5366 14.8525C12.6135 14.8525 12.6878 14.8807 12.7451 14.9317L14.0488 16.2281C14.126 16.3011 14.1563 16.4114 14.127 16.5135C14.0977 16.6156 14.0116 16.6967 13.9056 16.721L11.155 17.3044L11.0768 17.3559ZM12.5369 15.3857L11.0641 16.8504L13.5018 16.3317L12.5369 15.3857Z" fill="#FF6C37"/>
<path id="Vector_8" d="M24.5033 6.7131C23.5598 5.80797 22.0777 5.77005 21.0883 6.62414C20.0989 7.47823 19.9298 8.94433 20.7002 9.99918C21.4706 11.054 22.9229 11.3496 24.0472 10.6797L22.2742 8.91662L24.5033 6.7131Z" fill="white"/>
<path id="Vector_9" d="M22.7435 11.2757C22.2015 11.2688 21.6735 11.1034 21.2253 10.8002C20.7771 10.497 20.4286 10.0693 20.2231 9.57046C20.0178 9.072 19.964 8.52461 20.0682 7.99603C20.1725 7.46744 20.4303 6.98085 20.8097 6.59645C21.3316 6.087 22.0337 5.80157 22.765 5.80157C23.4964 5.80157 24.1985 6.087 24.7203 6.59645C24.7702 6.63826 24.7986 6.69999 24.7986 6.76513C24.7984 6.79718 24.7914 6.82883 24.7779 6.85793C24.7644 6.88703 24.7448 6.91291 24.7203 6.93381L22.6086 8.91713L24.212 10.4858C24.2379 10.5105 24.2575 10.5411 24.2688 10.575C24.2801 10.6089 24.2829 10.645 24.277 10.6802C24.2731 10.7142 24.2618 10.747 24.2438 10.7761C24.2258 10.8053 24.2016 10.8301 24.1729 10.8489C23.7421 11.1167 23.247 11.2644 22.7391 11.2767L22.7435 11.2757ZM22.7435 6.24597C21.8148 6.25083 20.9838 6.80645 20.6352 7.65568C20.2867 8.50491 20.4764 9.48247 21.1275 10.1348C21.4513 10.4588 21.866 10.6779 22.3172 10.7635C22.7684 10.8491 23.2351 10.7972 23.6562 10.6146L22.1178 9.08484C22.0934 9.06539 22.0736 9.04072 22.0601 9.01266C22.0465 8.9846 22.0395 8.95386 22.0395 8.92272C22.0395 8.89158 22.0465 8.86084 22.0601 8.83278C22.0736 8.80472 22.0934 8.78005 22.1178 8.7606L24.1514 6.72527C23.7471 6.41719 23.2528 6.24873 22.7435 6.24548V6.24597Z" fill="#FF6C37"/>
<path id="Vector_10" d="M24.5424 6.75195L22.3134 8.95547L24.0863 10.7186C24.2647 10.6167 24.4309 10.4949 24.5815 10.3555C25.0461 9.86703 25.3018 9.21817 25.2945 8.54584C25.2872 7.87351 25.0175 7.23029 24.5424 6.75195Z" fill="white"/>
<path id="Vector_11" d="M24.0467 10.9131C24.0174 10.9146 23.9882 10.9096 23.9611 10.8985C23.934 10.8873 23.9098 10.8702 23.8903 10.8484L22.1173 9.08529C22.0929 9.06585 22.0731 9.04118 22.0596 9.01311C22.046 8.98505 22.0389 8.95431 22.0389 8.92317C22.0389 8.89204 22.046 8.8613 22.0596 8.83323C22.0731 8.80517 22.0929 8.7805 22.1173 8.76106L24.3332 6.59642C24.3546 6.56433 24.3836 6.53801 24.4177 6.5198C24.4518 6.50159 24.49 6.49207 24.5287 6.49207C24.5674 6.49207 24.6055 6.50159 24.6396 6.5198C24.6738 6.53801 24.7028 6.56433 24.7242 6.59642C24.9843 6.84988 25.191 7.15241 25.3321 7.48629C25.4732 7.82017 25.5458 8.17869 25.5458 8.54085C25.5458 8.90301 25.4732 9.26153 25.3321 9.59541C25.191 9.92929 24.9843 10.2318 24.7242 10.4853C24.5708 10.6471 24.3952 10.7867 24.2026 10.8999C24.1542 10.9242 24.0981 10.9289 24.0462 10.9131H24.0467ZM22.613 8.9171L24.0858 10.3817C24.1871 10.3111 24.283 10.2331 24.3727 10.1484C24.8057 9.71902 25.0496 9.13628 25.0507 8.52821C25.0517 7.98403 24.8523 7.45834 24.4901 7.05044L22.613 8.9171Z" fill="#FF6C37"/>
<path id="Vector_12" d="M21.2702 10.6282C21.0936 10.4634 20.8606 10.3716 20.6184 10.3716C20.3762 10.3716 20.1431 10.4634 19.9665 10.6282L14.062 16.4868L15.0397 17.4722L21.2834 12.0277C21.3786 11.937 21.4541 11.8278 21.5053 11.7069C21.5565 11.5861 21.5823 11.4561 21.5811 11.3249C21.5798 11.1938 21.5516 11.0642 21.4981 10.9444C21.4447 10.8245 21.3671 10.7167 21.2702 10.6277V10.6282Z" fill="white"/>
<path id="Vector_13" d="M14.9874 17.7059C14.929 17.7045 14.8732 17.6815 14.831 17.6413L13.8401 16.6559C13.7979 16.6124 13.7742 16.5543 13.7742 16.4938C13.7742 16.4333 13.7979 16.3752 13.8401 16.3317L19.7451 10.4853C19.9152 10.3164 20.1324 10.2021 20.3685 10.1575C20.6047 10.1128 20.8489 10.1396 21.0695 10.2346C21.2901 10.3296 21.4769 10.4883 21.6057 10.6902C21.7345 10.892 21.7993 11.1277 21.7918 11.3666C21.785 11.5288 21.7458 11.688 21.6764 11.8349C21.6069 11.9818 21.5088 12.1135 21.3875 12.2222L15.1438 17.6666C15.0984 17.6985 15.0426 17.7124 14.9874 17.7054V17.7059ZM14.2967 16.4868L14.9483 17.1479L21.0747 11.8459C21.2262 11.7147 21.3167 11.527 21.3225 11.3272C21.3284 11.1274 21.2492 10.932 21.1011 10.7959C20.9643 10.6605 20.7791 10.5844 20.5861 10.5844C20.3931 10.5844 20.2079 10.6605 20.0711 10.7959L14.2967 16.4868Z" fill="#FF6C37"/>
<path id="Vector_14" d="M9.48665 23.163C9.46997 23.1855 9.46098 23.2128 9.46098 23.2407C9.46098 23.2687 9.46997 23.296 9.48665 23.3185L9.74719 24.4463C9.75763 24.5127 9.74774 24.5806 9.71879 24.6413C9.68984 24.702 9.64319 24.7526 9.5849 24.7866C9.52683 24.8204 9.45947 24.8349 9.39253 24.8282C9.32559 24.8215 9.26253 24.7938 9.21242 24.7491L7.42676 23.038L12.993 17.459H14.9223L16.226 18.7554C14.1924 20.5236 11.9249 22.0066 9.48665 23.163Z" fill="white"/>
<path id="Vector_15" d="M9.36934 25.0685C9.22171 25.0656 9.07604 25.0053 8.97828 24.8998L7.27082 23.2018C7.24637 23.1824 7.22662 23.1577 7.21306 23.1296C7.19949 23.1016 7.19244 23.0708 7.19244 23.0397C7.19244 23.0086 7.19949 22.9778 7.21306 22.9498C7.22662 22.9217 7.24637 22.897 7.27082 22.8776L12.8757 17.2908C12.907 17.2576 12.9481 17.235 12.993 17.2261H14.9351C14.9857 17.2083 15.0409 17.2083 15.0915 17.2261L16.3952 18.5226C16.42 18.5453 16.4388 18.5737 16.4502 18.6052C16.4615 18.6368 16.4649 18.6707 16.4602 18.7039C16.4611 18.7361 16.4545 18.7681 16.441 18.7973C16.4274 18.8266 16.4072 18.8523 16.382 18.8726L16.2779 18.9635C14.236 20.6562 11.9896 22.0889 9.59077 23.2281L9.83861 24.2781C9.85776 24.3591 9.8585 24.4433 9.84075 24.5246C9.82301 24.6059 9.78723 24.6823 9.73604 24.7481C9.68484 24.8139 9.61952 24.8675 9.54483 24.905C9.47014 24.9426 9.38798 24.963 9.30432 24.9649L9.36934 25.0685ZM7.7792 23.0331L9.31703 24.5756C9.33136 24.5883 9.34989 24.5953 9.36909 24.5953C9.38829 24.5953 9.40682 24.5883 9.42115 24.5756C9.43074 24.5623 9.4359 24.5464 9.4359 24.5301C9.4359 24.5138 9.43074 24.4979 9.42115 24.4847L9.16061 23.3569C9.14008 23.276 9.14833 23.1904 9.18397 23.1149C9.2196 23.0393 9.28044 22.9783 9.35614 22.9422C11.6905 21.8182 13.879 20.4166 15.8736 18.768L14.8046 17.7049H13.058L7.7792 23.0331Z" fill="#FF6C37"/>
<path id="Vector_16" d="M6.08443 24.3685L7.38812 23.072L9.39571 25.0685L6.20224 24.8482C6.14741 24.844 6.09534 24.8226 6.05346 24.7871C6.01157 24.7517 5.98202 24.704 5.96901 24.6509C5.95601 24.5977 5.96021 24.5418 5.98103 24.4912C6.00184 24.4406 6.0382 24.3978 6.08492 24.3689L6.08443 24.3685Z" fill="white"/>
<path id="Vector_17" d="M9.43433 25.2629L6.25357 25.0427C6.06489 25.0252 5.9026 24.8969 5.83612 24.7253C5.76964 24.5537 5.81021 24.35 5.94073 24.2129L7.24441 22.9165C7.28816 22.8744 7.34661 22.851 7.40744 22.851C7.46826 22.851 7.52671 22.8744 7.57046 22.9165L9.56485 24.8998C9.59246 24.9374 9.60734 24.9828 9.60734 25.0293C9.60734 25.0759 9.59246 25.1213 9.56485 25.1589C9.53469 25.2074 9.48857 25.244 9.43433 25.2624V25.2629ZM6.25357 24.5372L8.86046 24.7058L7.42674 23.3705L6.25357 24.5372Z" fill="#FF6C37"/>
<path id="Vector_18" d="M15.1046 17.6155L12.4714 18.0175L13.9965 16.514L15.1046 17.6155Z" fill="white"/>
<path id="Vector_19" d="M12.4714 18.263C12.4276 18.2641 12.3845 18.2524 12.3473 18.2294C12.3102 18.2063 12.2808 18.1728 12.2626 18.1332C12.2349 18.0956 12.2199 18.0503 12.2199 18.0037C12.2199 17.957 12.2349 17.9117 12.2626 17.8741L13.7745 16.3574C13.8204 16.3146 13.881 16.2907 13.9439 16.2907C14.0069 16.2907 14.0674 16.3146 14.1133 16.3574L15.2219 17.459C15.2441 17.4939 15.2558 17.5343 15.2558 17.5756C15.2558 17.6169 15.2441 17.6574 15.2219 17.6923C15.2111 17.7349 15.1881 17.7734 15.1557 17.8033C15.1234 17.8333 15.0831 17.8533 15.0396 17.861L12.4327 18.263H12.4714ZM13.9965 16.8499L13.1493 17.6923L14.6094 17.4721L13.9965 16.8499Z" fill="#FF6C37"/>
<path id="Vector_20" d="M15.1046 17.6145L13.2667 17.8479C13.2175 17.859 13.166 17.854 13.1199 17.8337C13.0737 17.8135 13.0354 17.7789 13.0106 17.7353C12.9857 17.6916 12.9757 17.6412 12.9819 17.5914C12.9882 17.5417 13.0104 17.4952 13.0452 17.459L13.997 16.5125L15.1046 17.6145Z" fill="white"/>
<path id="Vector_21" d="M13.2144 18.0948C13.1292 18.094 13.0457 18.0708 12.9725 18.0275C12.8993 17.9842 12.8389 17.9224 12.7974 17.8483C12.7477 17.7596 12.7284 17.6571 12.7425 17.5565C12.7566 17.4559 12.8034 17.3626 12.8756 17.2908L13.8274 16.3443C13.8733 16.3015 13.9338 16.2776 13.9968 16.2776C14.0597 16.2776 14.1203 16.3015 14.1661 16.3443L15.2743 17.4463C15.3073 17.4774 15.3304 17.5173 15.3411 17.5612C15.3517 17.6051 15.3492 17.6511 15.3341 17.6936C15.3189 17.7362 15.2917 17.7734 15.2556 17.8009C15.2196 17.8284 15.1763 17.8448 15.1311 17.8483L13.3063 18.0817L13.2144 18.0948ZM13.2144 17.615L14.5963 17.4463L13.9838 16.8372L13.2017 17.615H13.2144ZM24.5551 8.24284C24.5305 8.20194 24.4917 8.17142 24.446 8.15709C24.4004 8.14275 24.351 8.14559 24.3073 8.16507C24.2857 8.17594 24.2665 8.19101 24.2509 8.20938C24.2353 8.22775 24.2235 8.24904 24.2163 8.27201C24.2018 8.31835 24.2064 8.36853 24.229 8.41152C24.3204 8.60256 24.295 8.8286 24.164 8.99485C24.1478 9.01087 24.135 9.03007 24.1266 9.05124C24.1182 9.07241 24.1143 9.09509 24.1151 9.11784C24.1156 9.16343 24.133 9.20723 24.164 9.24082C24.1975 9.25396 24.2347 9.25396 24.2681 9.24082C24.2985 9.24841 24.3304 9.24758 24.3603 9.2384C24.3902 9.22923 24.417 9.21208 24.4378 9.18881C24.5451 9.05812 24.6131 8.8999 24.6338 8.73243C24.6546 8.56495 24.6273 8.39506 24.5551 8.24236V8.24284Z" fill="#FF6C37"/>
</g>
</svg>
