<svg width="33" height="34" viewBox="0 0 33 34" fill="none" xmlns="http://www.w3.org/2000/svg">
<g id="Group 70">
<path id="Vector" d="M16.4693 19.7429C17.9926 19.7429 19.2274 18.5149 19.2274 17C19.2274 15.4852 17.9926 14.2572 16.4693 14.2572C14.946 14.2572 13.7111 15.4852 13.7111 17C13.7111 18.5149 14.946 19.7429 16.4693 19.7429Z" fill="#61DAFB"/>
<g id="Group">
<path id="Vector (Stroke)" fill-rule="evenodd" clip-rule="evenodd" d="M3.5005 15.5567C2.87502 16.1182 2.66943 16.6078 2.66943 16.9999C2.66943 17.3921 2.87502 17.8817 3.5005 18.4431C4.12555 19.0043 5.08645 19.5554 6.35918 20.0386C8.89759 21.0024 12.4718 21.6194 16.4693 21.6194C20.4668 21.6194 24.0409 21.0024 26.5794 20.0386C27.8521 19.5554 28.813 19.0043 29.438 18.4431C30.0635 17.8817 30.2691 17.3921 30.2691 16.9999C30.2691 16.6078 30.0635 16.1182 29.438 15.5567C28.813 14.9956 27.8521 14.4445 26.5794 13.9613C24.0409 12.9974 20.4668 12.3805 16.4693 12.3805C12.4718 12.3805 8.89759 12.9974 6.35918 13.9613C5.08645 14.4445 4.12555 14.9956 3.5005 15.5567ZM5.64923 12.0915C8.46731 11.0215 12.293 10.3805 16.4693 10.3805C20.6455 10.3805 24.4712 11.0215 27.2893 12.0915C28.6948 12.6252 29.9013 13.285 30.7741 14.0685C31.6464 14.8516 32.2691 15.8403 32.2691 16.9999C32.2691 18.1596 31.6464 19.1483 30.7741 19.9314C29.9013 20.7149 28.6948 21.3747 27.2893 21.9084C24.4712 22.9784 20.6455 23.6194 16.4693 23.6194C12.293 23.6194 8.46731 22.9784 5.64923 21.9084C4.24372 21.3747 3.03723 20.7149 2.16446 19.9314C1.29211 19.1483 0.669434 18.1596 0.669434 16.9999C0.669434 15.8403 1.29211 14.8516 2.16446 14.0685C3.03723 13.285 4.24372 12.6252 5.64923 12.0915Z" fill="#61DAFB"/>
<path id="Vector (Stroke)_2" fill-rule="evenodd" clip-rule="evenodd" d="M11.2498 5.11159C10.4491 4.854 9.91718 4.92042 9.57142 5.11893C9.22567 5.31745 8.90188 5.7423 8.72586 6.56067C8.54983 7.37911 8.55034 8.48144 8.76572 9.8183C9.19533 12.4848 10.4446 15.8701 12.4427 19.3118C14.4408 22.7534 16.7643 25.5219 18.8717 27.2252C19.9283 28.0791 20.888 28.6307 21.6887 28.8883C22.4894 29.1459 23.0213 29.0795 23.3671 28.881C23.7128 28.6824 24.0366 28.2576 24.2126 27.4392C24.3887 26.6208 24.3882 25.5185 24.1728 24.1816C23.7432 21.515 22.4939 18.1298 20.4958 14.6881C18.4977 11.2465 16.1742 8.47799 14.0668 6.77473C13.0103 5.92082 12.0505 5.36921 11.2498 5.11159ZM15.3275 5.22628C17.6696 7.11919 20.1415 10.0946 22.2303 13.6923C24.319 17.29 25.6742 20.9066 26.1516 23.8701C26.3898 25.3482 26.4184 26.7179 26.1724 27.8617C25.9264 29.0056 25.3769 30.0332 24.3713 30.6106C23.3656 31.188 22.196 31.1474 21.0768 30.7873C19.9577 30.4273 18.7792 29.7178 17.611 28.7736C15.269 26.8807 12.797 23.9053 10.7082 20.3076C8.61953 16.7099 7.26431 13.0933 6.78687 10.1298C6.54873 8.65168 6.52007 7.28199 6.76609 6.13817C7.01212 4.9943 7.56162 3.96667 8.56724 3.3893C9.57286 2.81193 10.7425 2.85251 11.8617 3.21256C12.9808 3.57259 14.1593 4.28212 15.3275 5.22628Z" fill="#61DAFB"/>
<path id="Vector (Stroke)_3" fill-rule="evenodd" clip-rule="evenodd" d="M24.2126 6.56063C24.0366 5.74225 23.7128 5.31741 23.3671 5.11889C23.0213 4.92038 22.4894 4.85395 21.6887 5.11155C20.888 5.36916 19.9283 5.92077 18.8717 6.77469C16.7643 8.47794 14.4408 11.2464 12.4427 14.6881C10.4446 18.1297 9.19532 21.515 8.76572 24.1815C8.55034 25.5184 8.54983 26.6207 8.72586 27.4392C8.90188 28.2576 9.22567 28.6824 9.57142 28.8809C9.91718 29.0794 10.4491 29.1459 11.2498 28.8883C12.0505 28.6306 13.0103 28.079 14.0668 27.2251C16.1742 25.5219 18.4977 22.7534 20.4958 19.3117C22.4939 15.8701 23.7432 12.4848 24.1728 9.81826C24.3882 8.4814 24.3887 7.37906 24.2126 6.56063ZM26.1516 10.1298C25.6742 13.0932 24.319 16.7099 22.2303 20.3075C20.1415 23.9052 17.6696 26.8807 15.3275 28.7736C14.1593 29.7177 12.9808 30.4273 11.8617 30.7873C10.7425 31.1473 9.57286 31.1879 8.56724 30.6105C7.56162 30.0332 7.01212 29.0056 6.76609 27.8617C6.52007 26.7179 6.54873 25.3482 6.78687 23.87C7.26431 20.9066 8.61953 17.2899 10.7082 13.6923C12.797 10.0946 15.269 7.11915 17.611 5.22624C18.7792 4.28208 19.9577 3.57255 21.0768 3.21252C22.196 2.85247 23.3656 2.81189 24.3713 3.38926C25.3769 3.96663 25.9264 4.99425 26.1724 6.13813C26.4184 7.28194 26.3898 8.65164 26.1516 10.1298Z" fill="#61DAFB"/>
</g>
</g>
</svg>
