<svg width="33" height="32" viewBox="0 0 33 32" fill="none" xmlns="http://www.w3.org/2000/svg">
<g id="Group 58">
<path id="Vector" d="M2.13037 2.12958H30.8083V29.8704H2.13037V2.12958Z" fill="url(#paint0_radial_230_14837)"/>
<path id="Vector_2" d="M2.13037 2.12959H30.8083V29.8704H2.13037V2.12959ZM0.826843 31.1667H32.1118V0.833313H0.826843V31.1667ZM20.6146 13.4333C20.4191 13.3426 20.1583 13.3037 19.8455 13.3037C18.1639 13.3037 16.9907 14.5871 16.9907 16.7259C16.9907 19.163 18.19 20.1481 19.6891 20.1481C20.015 20.1481 20.3539 20.1092 20.6146 19.9926V13.4333ZM19.9237 11.3204C20.1974 11.3204 20.3539 11.3204 20.6146 11.3463V7.89813C20.6146 7.8074 20.6797 7.76851 20.7448 7.76851H22.8566C22.9609 7.76851 22.987 7.8074 22.987 7.8722V19.9926C22.987 20.3555 22.9869 20.8093 23.0521 21.3019C23.0521 21.3926 23.0261 21.4056 22.9348 21.4575C21.8138 21.9889 20.6276 22.2223 19.5196 22.2223C16.6388 22.2223 14.5791 20.4464 14.5791 16.8297C14.5662 13.7315 16.6257 11.3204 19.9237 11.3204ZM12.272 21.8593C12.272 21.9889 12.2459 22.0278 12.1025 22.0278H10.095C9.9647 22.0278 9.92554 21.963 9.92554 21.8593V7.93701C9.92554 7.8074 9.99071 7.76846 10.095 7.76846H12.1155C12.2198 7.76846 12.272 7.80735 12.272 7.92405V21.8593Z" fill="#FF408C"/>
</g>
<defs>
<radialGradient id="paint0_radial_230_14837" cx="0" cy="0" r="1" gradientUnits="userSpaceOnUse" gradientTransform="translate(11.5755 8.34633) scale(21.7952 20.9845)">
<stop stop-color="#4B2B36" stop-opacity="0.98"/>
<stop offset="1" stop-color="#250012"/>
</radialGradient>
</defs>
</svg>
