<svg width="32" height="32" viewBox="0 0 32 32" fill="none" xmlns="http://www.w3.org/2000/svg">
<g id="Group 74">
<path id="Vector" d="M0.740454 11.3437C0.740454 11.3437 -0.0172959 10.7975 0.892004 10.0681L3.01055 8.17376C3.01055 8.17376 3.61675 7.53598 4.25768 8.09167L23.8076 22.8931V29.9907C23.8076 29.9907 23.7982 31.1052 22.3679 30.9821L0.740454 11.3437Z" fill="#2489CA"/>
<path id="Vector_2" d="M5.77949 15.9187L0.740447 20.4999C0.740447 20.4999 0.22265 20.8851 0.740447 21.5734L3.08 23.7014C3.08 23.7014 3.63569 24.2981 4.45658 23.6193L9.79873 19.5685L5.77949 15.9187Z" fill="#1070B3"/>
<path id="Vector_3" d="M14.6262 15.9565L23.8677 8.89996L23.8077 1.84024C23.8077 1.84024 23.413 0.299474 22.0964 1.10143L9.79874 12.2941L14.6262 15.9565Z" fill="#0877B9"/>
<path id="Vector_4" d="M22.368 30.9916C22.9047 31.5409 23.5551 31.361 23.5551 31.361L30.7569 27.8122C31.6788 27.1839 31.5494 26.404 31.5494 26.404V5.21224C31.5494 4.28083 30.5959 3.95879 30.5959 3.95879L24.3539 0.949884C22.9899 0.106885 22.0964 1.10143 22.0964 1.10143C22.0964 1.10143 23.2457 0.274222 23.8077 1.84024V29.8613C23.8077 30.0539 23.7666 30.2433 23.6846 30.4138C23.5204 30.7453 23.1636 31.0547 22.308 30.9253L22.368 30.9916Z" fill="#3C99D4"/>
</g>
</svg>
