<svg width="32" height="32" viewBox="0 0 32 32" fill="none" xmlns="http://www.w3.org/2000/svg">
<g id="Group 65">
<path id="Vector" d="M31.4115 5.04919L16.9839 31.1494C16.686 31.6884 15.9207 31.6915 15.6183 31.1553L0.904743 5.05161C0.575295 4.46732 1.06923 3.75946 1.7238 3.87792L16.1669 6.48955C16.259 6.5062 16.3534 6.50604 16.4454 6.48906L30.5864 3.88156C31.2388 3.76128 31.735 4.46367 31.4115 5.04919Z" fill="url(#paint0_linear_230_12431)"/>
<path id="Vector_2" d="M23.0468 0.452118L12.37 2.56866C12.2847 2.58557 12.2074 2.63068 12.1502 2.6969C12.093 2.76312 12.0592 2.8467 12.054 2.93449L11.3973 14.1564C11.3937 14.2179 11.4043 14.2795 11.4283 14.3361C11.4523 14.3928 11.4891 14.443 11.5356 14.4828C11.5821 14.5226 11.6372 14.5509 11.6965 14.5654C11.7557 14.5799 11.8174 14.5802 11.8768 14.5664L14.8494 13.8724C15.1275 13.8074 15.3789 14.0553 15.3216 14.3382L14.4385 18.7134C14.3791 19.0079 14.6523 19.2596 14.9365 19.1722L16.7726 18.6079C17.0572 18.5205 17.3307 18.773 17.2705 19.0677L15.867 25.9401C15.7792 26.37 16.3444 26.6044 16.5801 26.2359L16.7376 25.9897L25.4376 8.4243C25.5834 8.1302 25.332 7.79484 25.0129 7.85723L21.953 8.45464C21.6655 8.51072 21.4209 8.23981 21.502 7.9553L23.4991 0.951335C23.5803 0.666103 23.3347 0.395071 23.0469 0.452118H23.0468Z" fill="url(#paint1_linear_230_12431)"/>
</g>
<defs>
<linearGradient id="paint0_linear_230_12431" x1="0.545499" y1="5.9837" x2="16.3406" y2="27.1872" gradientUnits="userSpaceOnUse">
<stop stop-color="#41D1FF"/>
<stop offset="1" stop-color="#BD34FE"/>
</linearGradient>
<linearGradient id="paint1_linear_230_12431" x1="17.5054" y1="1.0268" x2="20.7801" y2="23.2306" gradientUnits="userSpaceOnUse">
<stop stop-color="#FFEA83"/>
<stop offset="0.083" stop-color="#FFDD35"/>
<stop offset="1" stop-color="#FFA800"/>
</linearGradient>
</defs>
</svg>
