<svg width="28" height="32" viewBox="0 0 28 32" fill="none" xmlns="http://www.w3.org/2000/svg">
<g id="Group 83">
<path id="polygon2989" d="M27.7161 0.444458L25.217 28.4412L13.9832 31.5556L2.7804 28.4456L0.283905 0.444458H27.7161Z" fill="#264DE4"/>
<path id="polygon2991" d="M23.0774 26.6585L25.2131 2.73401H14V29.1751L23.0774 26.6585Z" fill="#2965F1"/>
<path id="polygon2993" d="M6.00708 13.1191L6.31488 16.5533H14V13.1191H6.00708Z" fill="#EBEBEB"/>
<path id="polygon2995" d="M14 6.16821H13.9881H5.38861L5.7008 9.60248H14V6.16821Z" fill="#EBEBEB"/>
<path id="polygon2997" d="M14 25.6112V22.0382L13.985 22.0422L10.1602 21.0095L9.91574 18.2705H8.05723H6.46832L6.94946 23.6627L13.9842 25.6156L14 25.6112Z" fill="#EBEBEB"/>
<path id="polygon3005" d="M18.217 16.5534L17.8184 21.0073L13.9882 22.0411V25.614L21.0285 23.6627L21.0802 23.0825L21.8872 14.0414L21.971 13.1192L22.5909 6.16821H13.9882V9.60247H18.8273L18.5148 13.1192H13.9882V16.5534H18.217Z" fill="white"/>
</g>
</svg>
