<svg width="32" height="32" viewBox="0 0 32 32" fill="none" xmlns="http://www.w3.org/2000/svg">
<path d="M31.1474 14.6138L17.4881 1.03116C16.702 0.248889 15.4261 0.248889 14.639 1.03116L11.8026 3.85182L15.4007 7.42997C16.2369 7.14899 17.1957 7.33748 17.8622 8.0003C18.5319 8.66736 18.7201 9.62901 18.4307 10.4632L21.8983 13.9116C22.7373 13.6242 23.7053 13.8102 24.3753 14.4776C25.3118 15.4085 25.3118 16.9173 24.3753 17.8488C23.4386 18.7804 21.9214 18.7804 20.9842 17.8488C20.2798 17.1476 20.1058 16.1188 20.4624 15.2559L17.2286 12.04L17.2282 20.5028C17.4626 20.6181 17.6767 20.7704 17.8622 20.9537C18.7987 21.8846 18.7987 23.3935 17.8622 24.3257C16.9255 25.2569 15.4076 25.2569 14.4722 24.3257C13.5357 23.3935 13.5357 21.8847 14.4722 20.9538C14.6966 20.7305 14.9633 20.5537 15.2569 20.4336V11.8919C14.9629 11.7725 14.696 11.5956 14.4722 11.3716C13.7627 10.667 13.5921 9.63168 13.9556 8.76531L10.4087 5.23773L1.04277 14.551C0.255762 15.334 0.255762 16.6029 1.04277 17.3853L14.7023 30.9682C15.4887 31.7506 16.7643 31.7506 17.5517 30.9682L31.1473 17.4484C31.9341 16.6657 31.9341 15.3961 31.1473 14.6138" fill="#DE4C36"/>
</svg>
