<svg width="31" height="30" viewBox="0 0 31 30" fill="none" xmlns="http://www.w3.org/2000/svg">
<path d="M0.635938 0.416091C0.573483 0.165668 0.807986 -0.0578959 1.05826 0.0134707L8.35076 2.09293C8.41605 2.0927 8.4806 2.11112 8.53576 2.14572L22.9181 6.24688C22.9778 6.2481 23.0365 6.26483 23.0876 6.29516L30.3807 8.37487C30.6312 8.44632 30.7096 8.75971 30.5217 8.93874L8.5139 29.9061C8.32605 30.0851 8.01305 29.9955 7.95055 29.7449L4.29987 15.1072C4.29499 15.0921 4.29115 15.0768 4.28841 15.0612L0.635938 0.416091ZM6.88273 22.6673L8.46709 29.0201L13.2383 24.4743L6.88273 22.6673ZM11.7973 17.6435L7.17794 22.0535L13.3317 23.8033L11.7973 17.6435ZM12.483 17.5964L14.0125 23.7367L18.6193 19.3477L12.483 17.5964ZM5.09198 15.487L6.62819 21.647L11.2421 17.2423L5.09198 15.487ZM17.2448 12.437L12.5513 16.9178L18.806 18.703L17.2448 12.437ZM17.9025 12.2776L19.4636 18.5434L24.17 14.0596L17.9025 12.2776ZM9.9828 10.3577L5.27926 14.8425L11.5454 16.6308L9.9828 10.3577ZM10.638 10.1886L12.1724 16.3482L16.7917 11.9382L10.638 10.1886ZM3.24886 8.09673L4.8105 14.3587L9.51065 9.87709L3.24886 8.09673ZM22.7244 7.22734L18.1051 11.6374L24.2588 13.3872L22.7244 7.22734ZM23.3846 7.07766L24.9409 13.3251L29.6292 8.85842L23.3846 7.07766ZM15.4323 5.16189L10.8337 9.54653L16.9585 11.2879L15.4323 5.16189ZM16.0886 4.99716L17.6252 11.1643L22.2459 6.75291L16.0886 4.99716ZM8.16529 3.07347L3.54594 7.48351L9.69971 9.23328L8.16529 3.07347ZM8.82605 2.92617L10.3566 9.07042L14.9648 4.6767L8.82605 2.92617ZM1.43364 0.818232L2.99491 7.07836L7.68499 2.60083L1.43364 0.818232Z" fill="black"/>
</svg>
